# xmcd
#
# Track frame offsets:
#	150
#	18052
#	40684
#	57154
#	76398
#	101968
#	123207
#
# Disc length: 1848 seconds
#
# Revision: 0
# Processed by: cddbd v1.5PL3 Copyright (c) Steve Scherf et al.
# Submitted via: dBpowerAMP V4.0
#
DISCID=4b073607
DTITLE=Beal St. Blues Band - Bad Little Doggie
DYEAR=2004
DGENRE=Blues
TTITLE0=She Changed The Lock
TTITLE1=Fight
TTITLE2=Soundman
TTITLE3=Low Down And Dirty
TTITLE4=Come Home
TTITLE5=Too Cool Woman Blues
TTITLE6=The Riff
EXTD=
EXTT0=
EXTT1=
EXTT2=
EXTT3=
EXTT4=
EXTT5=
EXTT6=
PLAYORDER=
